<svg height="496pt" viewBox="-32 0 496 496.024" width="496pt" xmlns="http://www.w3.org/2000/svg"><path d="m392.253906 208.007812h-.082031c-4.414063 0-7.953125 3.585938-7.953125 8 0 4.417969 3.617188 8 8.042969 8 4.414062 0 8-3.582031 8-8 0-4.414062-3.59375-8-8.007813-8zm0 0"/><path d="m384.210938 151.992188c0 4.414062 3.617187 8 8.042968 8 4.414063 0 8-3.585938 8-8 0-4.417969-3.585937-8-8-8h-.082031c-4.414063 0-7.960937 3.582031-7.960937 8zm0 0"/><path d="m380.363281 96.40625c4.417969 0 8-3.582031 8-8 0-4.414062-3.582031-8-8-8h-.085937c-4.417969 0-7.953125 3.585938-7.953125 8 0 4.417969 3.617187 8 8.039062 8zm0 0"/><path d="m.0117188 216.03125c0 22.046875 17.9453122 39.992188 40.0000002 39.992188h57.410156c11.894531 29.28125 34.335937 53.113281 62.574219 66.929687v29.085937l-55.984375-.007812c-30.886719 0-56.015625 25.128906-56.015625 56.015625v71.976563c0 8.824218 7.175781 16 16 16h304c8.824218 0 16-7.175782 16-16v-71.984376c0-30.871093-25.128906-56-56-56l-56-.007812v-29.078125c28.238281-13.824219 50.679687-37.648437 62.574218-66.929687h57.441407c22.054687 0 40-17.945313 40-39.992188 0-13.136719-6.457031-24.710938-16.253907-32.007812 9.796876-7.296876 16.253907-18.871094 16.253907-32.007813 0-15.96875-9.472657-29.664063-23.023438-36.078125 10.320313-10.875 14.199219-27.074219 8.441407-41.960938-5.9375-15.289062-20.929688-25.550781-37.320313-25.550781-4.9375 0-9.800781.910157-14.441406 2.703125-9.464844 3.664063-16.921875 10.6875-21.359375 19.742188-26.96875-42.503906-74.320313-70.855469-128.273438-70.871094h-.007812c-.007813 0-.007813 0-.015625 0-.007813 0-.007813 0-.015625 0h-.007813c-53.953125.015625-101.304687 28.367188-128.273437 70.871094-4.4375-9.054688-11.894532-16.078125-21.359375-19.742188-4.640625-1.800781-9.503907-2.703125-14.441407-2.703125-16.390624 0-31.382812 10.269531-37.316406 25.558594-5.769531 14.878906-1.882812 31.070313 8.4375 41.953125-13.550781 6.414062-23.0234372 20.109375-23.0234372 36.078125 0 13.136719 6.4570312 24.710937 16.2578122 32-9.800781 7.304687-16.2578122 18.878906-16.2578122 32.015625zm64.0156252-31.785156c-.09375-.070313-.175782-.15625-.269532-.230469.09375-.070313.175782-.160156.269532-.222656zm-.03125 295.777344v-71.976563c0-22.0625 17.953125-40.015625 40.015625-40.015625h21.28125l77.503906 59.039062-69.511719 52.953126zm264-111.984376c22.054687 0 40 17.945313 40 40v71.984376h-208.3125l147.015625-111.984376zm-47.695313-.007812-64.304687 48.984375-64.296875-48.976563h16.296875c4.425781 0 8-3.574218 8-8v-30.503906c12.601562 4.167969 26.023437 6.496094 40 6.496094 13.976562 0 27.398437-2.328125 40-6.496094v30.496094c0 4.425781 3.574218 8 8 8zm47.695313-160c0 61.761719-50.238282 112-112 112-61.761719 0-112-50.238281-112-112v-48.023438h32.03125c13.234375 0 24-10.769531 24-24 0-2.824218-.574219-5.488281-1.480469-8h17.496094c10.417969 0 19.210937-6.703124 22.519531-16h34.859375c3.308594 9.296876 12.109375 16 22.519531 16h17.496094c-.898438 2.511719-1.480469 5.175782-1.480469 8 0 13.230469 10.765625 24 24 24h32.03125v48.023438zm-151.96875-112.023438v-48.007812h8.015625v48.007812zm24.015625 0v-48.007812h31.953125v48.007812zm47.953125 0v-48.007812h7.96875l-.023438 48.007812zm168.015625 120.023438c0 13.234375-10.769531 23.992188-24 23.992188s-24-10.757813-24-23.992188c0-13.230469 10.769531-24 24-24s24 10.769531 24 24zm-48.015625-31.785156v-.453125c.097656.070312.175781.160156.273437.222656-.089843.074219-.175781.160156-.273437.230469zm48.015625-32.230469c0 13.230469-10.769531 23.992187-24 23.992187s-24-10.761718-24-23.992187 10.769531-24 24-24 24 10.769531 24 24zm-57.847657-73.28125c2.582032-5.863281 7.304688-10.367187 13.289063-12.679687 2.789063-1.078126 5.703125-1.628907 8.65625-1.628907 9.832031 0 18.839844 6.167969 22.398437 15.335938 4.777344 12.335937-1.375 26.261719-13.710937 31.039062-12.058594 4.664063-26.433594-1.785156-31.039063-13.710937-2.320312-5.976563-2.179687-12.488282.40625-18.355469zm-278.167968 137.449219c0-.054688.03125-.105469.03125-.160156v-64.023438c0-74.992188 61-135.992188 135.984375-136 74.984375.007812 135.984375 61.007812 135.984375 136v64.023438c0 .054687.03125.105468.03125.160156.039062 8.976562 3.144531 17.167968 8.183594 23.832031h-20.429688c2.648438-10.246094 4.207031-20.925781 4.207031-31.992187v-56.023438c0-4.414062-3.578125-8-8-8h-40.03125c-4.417969 0-8-3.59375-8-8s3.582031-8 8-8c4.421875 0 8-3.585938 8-8s-3.578125-8-8-8h-40c8.824219 0 16-7.175781 16-16v-48c0-8.824219-7.175781-16-16-16h-79.9375c-8.824219 0-16 7.175781-16 16v48.007812c0 8.824219 7.175781 16 16 16h-40c-4.421875 0-8 3.585938-8 8 0 4.417969 3.578125 8 8 8 4.417969 0 8 3.59375 8 8s-3.582031 8-8 8h-40.03125c-4.425781 0-8 3.585938-8 8v56.023438c0 11.066406 1.558594 21.746094 4.207031 31.992188h-20.398437c5.054687-6.664063 8.160156-14.863282 8.199219-23.839844zm-50.480469-136.414063c3.550781-9.175781 12.558594-15.34375 22.398437-15.34375 2.953126 0 5.867188.542969 8.65625 1.628907 5.984376 2.320312 10.707032 6.824218 13.289063 12.679687 2.578125 5.859375 2.730469 12.378906.410156 18.363281-3.546875 9.167969-12.546875 15.335938-22.394531 15.335938-2.949219 0-5.863281-.546875-8.648438-1.625-12.335937-4.785156-18.480468-18.710938-13.710937-31.039063zm-13.503906 72.246094c0-13.230469 10.769531-24 24-24s24 10.769531 24 24-10.769531 23.992187-24 23.992187-24-10.761718-24-23.992187zm24 40.015625c13.230469 0 24 10.769531 24 24 0 13.234375-10.769531 23.992188-24 23.992188s-24-10.757813-24-23.992188c0-13.230469 10.769531-24 24-24zm0 0"/><path d="m40.253906 224.007812c4.414063 0 8-3.582031 8-8 0-4.414062-3.585937-8-8-8h-.082031c-4.414063 0-7.953125 3.585938-7.953125 8 0 4.417969 3.617188 8 8.035156 8zm0 0"/><path d="m40.253906 159.992188c4.414063 0 8-3.585938 8-8 0-4.417969-3.585937-8-8-8h-.082031c-4.414063 0-7.953125 3.582031-7.953125 8 0 4.414062 3.617188 8 8.035156 8zm0 0"/><path d="m52.148438 96.40625c4.414062 0 8-3.582031 8-8 0-4.414062-3.585938-8-8-8h-.089844c-4.414063 0-7.949219 3.585938-7.949219 8 0 4.417969 3.613281 8 8.039063 8zm0 0"/></svg>